<svg id="Capa_1" enable-background="new 0 0 512 512" height="512" viewBox="0 0 512 512" width="512" xmlns="http://www.w3.org/2000/svg"><g><path d="m80 376c0-44.183 35.817-80 80-80h-60c-44.183 0-80 35.817-80 80 0 44.183 35.817 80 80 80h60c-44.183 0-80-35.817-80-80z" fill="#cee1f2"/><path d="m80 176v-80c0-22.091 17.909-40 40-40h-60c-22.091 0-40 17.909-40 40v80c0 22.091 17.909 40 40 40h60c-22.091 0-40-17.909-40-40z" fill="#cee1f2"/><path d="m140 356c-11.046 0-20 8.954-20 20s8.954 20 20 20h272c11.046 0 20-8.954 20-20s-8.954-20-20-20z" fill="#ef9122"/><path d="m392 136c0-11.046-8.954-20-20-20h-272c-11.046 0-20 8.954-20 20s8.954 20 20 20h272c11.046 0 20-8.954 20-20z" fill="#ef9122"/><g fill="#ffffff"><path d="m452 276h-352c-55.141 0-100 44.86-100 100s44.859 100 100 100h352c33.084 0 60-26.916 60-60v-80c0-33.084-26.916-60-60-60zm20 140c0 11.028-8.972 20-20 20h-352c-33.084 0-60-26.916-60-60s26.916-60 60-60h352c11.028 0 20 8.972 20 20z"/><path d="m412 36h-352c-33.084 0-60 26.916-60 60v80c0 33.084 26.916 60 60 60h352c55.141 0 100-44.86 100-100s-44.859-100-100-100zm0 160h-352c-11.028 0-20-8.972-20-20v-80c0-11.028 8.972-20 20-20h352c33.084 0 60 26.916 60 60s-26.916 60-60 60z"/></g></g></svg>