<svg id="Layer_1" enable-background="new 0 0 512.08 512.08" height="512" viewBox="0 0 512.08 512.08" width="512" xmlns="http://www.w3.org/2000/svg"><g><path d="m115.246 246.237c8.149-10.517 12.571-23.444 12.571-36.749 0-120.774 107.319-164.326 150.441-170.584-.234-4.22-6.218-18.812-6.218-18.812l.006-.006c-.05 0-.1.003-.15.003s-.1-.003-.15-.003c-.001.002-.002.004-.003.006-114.697 0-201.373 67.988-201.373 189.396-19.187 24.763-35.839 48.702-46.54 69.18-11.5 22.006 4.617 48.348 29.425 48.413 8.258.021 15.166 6.259 15.869 14.487l4.319 50.528c2.513 29.401 27.111 51.986 56.618 51.986h31.817c-.602-5.935-1.198-11.87-1.808-17.801-16.446-5.043-28.54-20.13-29.023-38.199l-4.693-51.627c0-34.373-30.968-48.297-31.539-48.791-4.86-4.204-11.306-4.582-2.117-16.582 5.309-6.936 16.318-16.805 22.548-24.845z" fill="#cee1f2"/><path d="m187.046 512.08c-11.046 0-20-8.954-20-20v-8c0-11.028-8.972-20-20-20h-16.986c-19.294 0-37.747-7.187-51.959-20.235-14.212-13.049-22.944-30.823-24.587-50.046l-4.004-46.852c-17.255-1.211-32.658-10.571-41.734-25.556-9.694-16.004-10.319-35.438-1.672-51.986 9.749-18.655 24.284-40.562 44.354-66.835 1.613-127.003 102.071-206.338 226.97-202.432 11.044.211 19.825 9.335 19.614 20.378-.211 11.044-9.322 19.875-20.378 19.614-111.279-2.35-186.802 64.795-186.294 169.358-.001 4.434-1.475 8.743-4.191 12.249-20.449 26.393-35.462 48.663-44.624 66.194-3.044 5.824-.711 10.847.434 12.736 1.168 1.928 4.613 6.414 11.357 6.414 18.758 0 34.108 14.094 35.705 32.783l4.318 50.528c1.642 19.206 17.416 33.688 36.691 33.688h16.985c33.084 0 60 26.916 60 60v8c.001 11.046-8.953 20-19.999 20zm249-20v-124c0-12.738 2.022-24.606 6.182-36.282 3.708-10.405-1.722-21.845-12.127-25.552-10.407-3.707-21.846 1.722-25.553 12.127-5.721 16.057-8.502 32.316-8.502 49.707v124c0 11.046 8.954 20 20 20s20-8.954 20-20zm10.579-284.837c2.671-1.917 65.421-47.677 65.421-111.982 0-26.743-10.626-51.211-29.919-68.897-18.486-16.946-43.375-26.278-70.081-26.278s-51.595 9.332-70.081 26.278c-19.293 17.686-29.919 42.154-29.919 68.897 0 64.257 62.25 110.021 64.9 111.938 3.411 2.466 7.512 3.794 11.721 3.794h46.298c4.184 0 8.261-1.312 11.66-3.75zm-94.579-111.982c0-31.971 25.234-55.175 60-55.175s60 23.204 60 55.175c0 35.416-31.809 65.485-44.035 75.732h-32.338c-12.198-10.319-43.627-40.347-43.627-75.732z" fill="#ffffff"/><path d="m430.046 273.086h-36c-26.536-1.056-26.516-38.953 0-40h36c26.536 1.056 26.516 38.954 0 40zm21-182c0-7.458-4.09-13.95-10.141-17.388l.019-.03c-2.238-1.424-14.123-8.491-29.586-8.58-.062 0-.125-.001-.187-.001h-.11c-.062 0-.125 0-.188.001-14.822.086-26.333 6.57-29.234 8.362-18.126 9.848-11.422 37.498 9.51 37.633v16.004c1.056 26.536 38.953 26.516 40 0v-16.004c11.007-.046 19.917-8.979 19.917-19.997z" fill="#ef9122"/></g></svg>